<?xml version="1.0" standalone="no"?>
<!DOCTYPE svg PUBLIC "-//W3C//DTD SVG 20010904//EN"
 "http://www.w3.org/TR/2001/REC-SVG-20010904/DTD/svg10.dtd">
<svg version="1.0" xmlns="http://www.w3.org/2000/svg"
 width="175.000000pt" height="151.000000pt" viewBox="0 0 175.000000 151.000000"
 preserveAspectRatio="xMidYMid meet">

<g transform="translate(0.000000,151.000000) scale(0.100000,-0.100000)"
fill="#000000" stroke="none">
<path d="M748 1460 c-221 -40 -429 -189 -526 -376 -107 -207 -108 -424 -5
-634 61 -126 177 -245 298 -307 138 -71 209 -88 365 -87 125 0 142 3 232 33
350 119 555 464 483 813 -8 41 -35 114 -62 168 -85 174 -246 307 -448 370 -78
24 -256 35 -337 20z m227 -447 c43 -71 80 -131 82 -136 5 -8 -3 -22 -179 -304
-66 -106 -124 -191 -128 -188 -9 5 -227 356 -232 372 -3 11 53 113 62 113 3 0
43 -61 89 -136 46 -74 85 -133 88 -131 13 13 163 264 163 272 0 6 -7 19 -16
30 -17 23 -8 33 -90 -103 -30 -51 -59 -90 -64 -87 -10 6 -60 94 -60 106 0 13
192 319 200 319 4 0 42 -57 85 -127z m233 -151 l29 -47 -134 -215 c-73 -118
-137 -216 -141 -218 -5 -1 -14 8 -20 20 -6 13 -20 37 -31 53 l-20 30 54 85
c29 47 90 145 135 217 46 73 86 130 90 128 5 -3 22 -27 38 -53z"/>
</g>
</svg>
